<mxfile host="app.diagrams.net" modified="2023-06-29T22:47:57.711Z" agent="Mozilla/5.0 (Windows NT 10.0; Win64; x64) AppleWebKit/537.36 (KHTML, like Gecko) Chrome/114.0.0.0 Safari/537.36 Edg/114.0.1823.58" version="21.5.2" etag="Oi1Z9Xc0fUad1jerc4AU" type="github">
  <diagram name="Page-1" id="VphzPN357khnL-S9neOZ">
    <mxGraphModel>
      <root>
        <mxCell id="0" />
        <mxCell id="1" parent="0" />
      </root>
    </mxGraphModel>
  </diagram>
</mxfile>
